<?xml version="1.0" encoding="utf-8"?>
<!-- Generator: Adobe Illustrator 28.4.1, SVG Export Plug-In . SVG Version: 6.00 Build 0)  -->
<svg version="1.1" id="Layer_1" xmlns="http://www.w3.org/2000/svg" xmlns:xlink="http://www.w3.org/1999/xlink" x="0px" y="0px"
	 viewBox="0 0 16 16" style="enable-background:new 0 0 16 16;" xml:space="preserve">
<style type="text/css">
	.st0{fill:#787878;}
</style>
<path class="st0" d="M4.7,14.6C5.6,15.5,6.8,16,8.1,16c1.3,0,2.5-0.5,3.4-1.4l3-3c0.9-0.9,1.4-2.1,1.4-3.4V3.9C16,1.7,14.3,0,12.1,0
	H7.9C6.6,0,5.4,0.5,4.5,1.4l-3,3C0.5,5.4,0,6.6,0,7.9c0,1.3,0.5,2.5,1.4,3.4L4.7,14.6z M2.5,5.6l3-3c0.6-0.6,1.4-1,2.3-1h4.3
	c1.3,0,2.3,1,2.3,2.3v4.3c0,0.9-0.3,1.7-1,2.3l-3,3c-0.6,0.6-1.4,1-2.3,1s-1.7-0.3-2.3-1l-3.3-3.3c-0.6-0.6-1-1.4-1-2.3
	S1.9,6.2,2.5,5.6L2.5,5.6z"/>
<path class="st0" d="M11.1,5.7c0,1-1.5,1-1.5,0S11.1,4.6,11.1,5.7"/>
</svg>
